<svg xmlns="http://www.w3.org/2000/svg" xmlns:xlink="http://www.w3.org/1999/xlink" contentStyleType="text/css" height="1356px" preserveAspectRatio="none" style="width:1634px;height:1356px;background:#FFFFFF;" version="1.1" viewBox="0 0 1634 1356" width="1634px" zoomAndPan="magnify"><defs/><g><line style="stroke:#181818;stroke-width:0.5;stroke-dasharray:5.0,5.0;" x1="66" x2="66" y1="70.25" y2="1286.9063"/><line style="stroke:#181818;stroke-width:0.5;stroke-dasharray:5.0,5.0;" x1="262" x2="262" y1="70.25" y2="1286.9063"/><line style="stroke:#181818;stroke-width:0.5;stroke-dasharray:5.0,5.0;" x1="474" x2="474" y1="70.25" y2="1286.9063"/><line style="stroke:#181818;stroke-width:0.5;stroke-dasharray:5.0,5.0;" x1="630" x2="630" y1="70.25" y2="1286.9063"/><line style="stroke:#181818;stroke-width:0.5;stroke-dasharray:5.0,5.0;" x1="825" x2="825" y1="70.25" y2="1286.9063"/><line style="stroke:#181818;stroke-width:0.5;stroke-dasharray:5.0,5.0;" x1="1040" x2="1040" y1="70.25" y2="1286.9063"/><line style="stroke:#181818;stroke-width:0.5;stroke-dasharray:5.0,5.0;" x1="1261" x2="1261" y1="70.25" y2="1286.9063"/><line style="stroke:#181818;stroke-width:0.5;stroke-dasharray:5.0,5.0;" x1="1458.5" x2="1458.5" y1="70.25" y2="1286.9063"/><rect fill="#E2E2F0" height="64.25" rx="2.5" ry="2.5" style="stroke:#181818;stroke-width:0.5;" width="123" x="5" y="5"/><text fill="#000000" font-family="sans-serif" font-size="18" font-weight="bold" lengthAdjust="spacing" textLength="109" x="12" y="30.6855">EMS service</text><line style="stroke:#181818;stroke-width:1.0;" x1="5" x2="128" y1="39.6406" y2="39.6406"/><text fill="#000000" font-family="sans-serif" font-size="14" lengthAdjust="spacing" textLength="81" x="26" y="59.1738">EConnection</text><rect fill="#E2E2F0" height="64.25" rx="2.5" ry="2.5" style="stroke:#181818;stroke-width:0.5;" width="123" x="5" y="1285.9063"/><text fill="#000000" font-family="sans-serif" font-size="18" font-weight="bold" lengthAdjust="spacing" textLength="109" x="12" y="1311.5918">EMS service</text><line style="stroke:#181818;stroke-width:1.0;" x1="5" x2="128" y1="1320.5469" y2="1320.5469"/><text fill="#000000" font-family="sans-serif" font-size="14" lengthAdjust="spacing" textLength="81" x="26" y="1340.0801">EConnection</text><rect fill="#E2E2F0" height="64.25" rx="2.5" ry="2.5" style="stroke:#181818;stroke-width:0.5;" width="248" x="138" y="5"/><text fill="#000000" font-family="sans-serif" font-size="18" font-weight="bold" lengthAdjust="spacing" textLength="234" x="145" y="30.6855">Electricity demand service</text><line style="stroke:#181818;stroke-width:1.0;" x1="138" x2="386" y1="39.6406" y2="39.6406"/><text fill="#000000" font-family="sans-serif" font-size="14" lengthAdjust="spacing" textLength="113" x="205.5" y="59.1738">ElectricityDemand</text><rect fill="#E2E2F0" height="64.25" rx="2.5" ry="2.5" style="stroke:#181818;stroke-width:0.5;" width="248" x="138" y="1285.9063"/><text fill="#000000" font-family="sans-serif" font-size="18" font-weight="bold" lengthAdjust="spacing" textLength="234" x="145" y="1311.5918">Electricity demand service</text><line style="stroke:#181818;stroke-width:1.0;" x1="138" x2="386" y1="1320.5469" y2="1320.5469"/><text fill="#000000" font-family="sans-serif" font-size="14" lengthAdjust="spacing" textLength="113" x="205.5" y="1340.0801">ElectricityDemand</text><rect fill="#E2E2F0" height="64.25" rx="2.5" ry="2.5" style="stroke:#181818;stroke-width:0.5;" width="157" x="396" y="5"/><text fill="#000000" font-family="sans-serif" font-size="18" font-weight="bold" lengthAdjust="spacing" textLength="143" x="403" y="30.6855">Weather service</text><line style="stroke:#181818;stroke-width:1.0;" x1="396" x2="553" y1="39.6406" y2="39.6406"/><text fill="#000000" font-family="sans-serif" font-size="14" lengthAdjust="spacing" textLength="137" x="406" y="59.1738">EnvironmentalProfiles</text><rect fill="#E2E2F0" height="64.25" rx="2.5" ry="2.5" style="stroke:#181818;stroke-width:0.5;" width="157" x="396" y="1285.9063"/><text fill="#000000" font-family="sans-serif" font-size="18" font-weight="bold" lengthAdjust="spacing" textLength="143" x="403" y="1311.5918">Weather service</text><line style="stroke:#181818;stroke-width:1.0;" x1="396" x2="553" y1="1320.5469" y2="1320.5469"/><text fill="#000000" font-family="sans-serif" font-size="14" lengthAdjust="spacing" textLength="137" x="406" y="1340.0801">EnvironmentalProfiles</text><rect fill="#E2E2F0" height="64.25" rx="2.5" ry="2.5" style="stroke:#181818;stroke-width:0.5;" width="134" x="563" y="5"/><text fill="#000000" font-family="sans-serif" font-size="18" font-weight="bold" lengthAdjust="spacing" textLength="95" x="582.5" y="30.6855">EV service</text><line style="stroke:#181818;stroke-width:1.0;" x1="563" x2="697" y1="39.6406" y2="39.6406"/><text fill="#000000" font-family="sans-serif" font-size="14" lengthAdjust="spacing" textLength="120" x="570" y="59.1738">EVChargingStation</text><rect fill="#E2E2F0" height="64.25" rx="2.5" ry="2.5" style="stroke:#181818;stroke-width:0.5;" width="134" x="563" y="1285.9063"/><text fill="#000000" font-family="sans-serif" font-size="18" font-weight="bold" lengthAdjust="spacing" textLength="95" x="582.5" y="1311.5918">EV service</text><line style="stroke:#181818;stroke-width:1.0;" x1="563" x2="697" y1="1320.5469" y2="1320.5469"/><text fill="#000000" font-family="sans-serif" font-size="14" lengthAdjust="spacing" textLength="120" x="570" y="1340.0801">EVChargingStation</text><rect fill="#E2E2F0" height="64.25" rx="2.5" ry="2.5" style="stroke:#181818;stroke-width:0.5;" width="174" x="738" y="5"/><text fill="#000000" font-family="sans-serif" font-size="18" font-weight="bold" lengthAdjust="spacing" textLength="160" x="745" y="30.6855">Heatpump service</text><line style="stroke:#181818;stroke-width:1.0;" x1="738" x2="912" y1="39.6406" y2="39.6406"/><text fill="#000000" font-family="sans-serif" font-size="14" lengthAdjust="spacing" textLength="65" x="792.5" y="59.1738">HeatPump</text><rect fill="#E2E2F0" height="64.25" rx="2.5" ry="2.5" style="stroke:#181818;stroke-width:0.5;" width="174" x="738" y="1285.9063"/><text fill="#000000" font-family="sans-serif" font-size="18" font-weight="bold" lengthAdjust="spacing" textLength="160" x="745" y="1311.5918">Heatpump service</text><line style="stroke:#181818;stroke-width:1.0;" x1="738" x2="912" y1="1320.5469" y2="1320.5469"/><text fill="#000000" font-family="sans-serif" font-size="14" lengthAdjust="spacing" textLength="65" x="792.5" y="1340.0801">HeatPump</text><rect fill="#E2E2F0" height="64.25" rx="2.5" ry="2.5" style="stroke:#181818;stroke-width:0.5;" width="237" x="922" y="5"/><text fill="#000000" font-family="sans-serif" font-size="18" font-weight="bold" lengthAdjust="spacing" textLength="223" x="929" y="30.6855">Hybrid Heatpump service</text><line style="stroke:#181818;stroke-width:1.0;" x1="922" x2="1159" y1="39.6406" y2="39.6406"/><text fill="#000000" font-family="sans-serif" font-size="14" lengthAdjust="spacing" textLength="105" x="988" y="59.1738">HybridHeatPump</text><rect fill="#E2E2F0" height="64.25" rx="2.5" ry="2.5" style="stroke:#181818;stroke-width:0.5;" width="237" x="922" y="1285.9063"/><text fill="#000000" font-family="sans-serif" font-size="18" font-weight="bold" lengthAdjust="spacing" textLength="223" x="929" y="1311.5918">Hybrid Heatpump service</text><line style="stroke:#181818;stroke-width:1.0;" x1="922" x2="1159" y1="1320.5469" y2="1320.5469"/><text fill="#000000" font-family="sans-serif" font-size="14" lengthAdjust="spacing" textLength="105" x="988" y="1340.0801">HybridHeatPump</text><rect fill="#E2E2F0" height="64.25" rx="2.5" ry="2.5" style="stroke:#181818;stroke-width:0.5;" width="184" x="1169" y="5"/><text fill="#000000" font-family="sans-serif" font-size="18" font-weight="bold" lengthAdjust="spacing" textLength="170" x="1176" y="30.6855">LV network service</text><line style="stroke:#181818;stroke-width:1.0;" x1="1169" x2="1353" y1="39.6406" y2="39.6406"/><text fill="#000000" font-family="sans-serif" font-size="14" lengthAdjust="spacing" textLength="91" x="1215.5" y="59.1738">EnergySystem</text><rect fill="#E2E2F0" height="64.25" rx="2.5" ry="2.5" style="stroke:#181818;stroke-width:0.5;" width="184" x="1169" y="1285.9063"/><text fill="#000000" font-family="sans-serif" font-size="18" font-weight="bold" lengthAdjust="spacing" textLength="170" x="1176" y="1311.5918">LV network service</text><line style="stroke:#181818;stroke-width:1.0;" x1="1169" x2="1353" y1="1320.5469" y2="1320.5469"/><text fill="#000000" font-family="sans-serif" font-size="14" lengthAdjust="spacing" textLength="91" x="1215.5" y="1340.0801">EnergySystem</text><rect fill="#E2E2F0" height="64.25" rx="2.5" ry="2.5" style="stroke:#181818;stroke-width:0.5;" width="109" x="1404.5" y="5"/><text fill="#000000" font-family="sans-serif" font-size="18" font-weight="bold" lengthAdjust="spacing" textLength="95" x="1411.5" y="30.6855">PV service</text><line style="stroke:#181818;stroke-width:1.0;" x1="1404.5" x2="1513.5" y1="39.6406" y2="39.6406"/><text fill="#000000" font-family="sans-serif" font-size="14" lengthAdjust="spacing" textLength="85" x="1416.5" y="59.1738">PVInstallation</text><rect fill="#E2E2F0" height="64.25" rx="2.5" ry="2.5" style="stroke:#181818;stroke-width:0.5;" width="109" x="1404.5" y="1285.9063"/><text fill="#000000" font-family="sans-serif" font-size="18" font-weight="bold" lengthAdjust="spacing" textLength="95" x="1411.5" y="1311.5918">PV service</text><line style="stroke:#181818;stroke-width:1.0;" x1="1404.5" x2="1513.5" y1="1320.5469" y2="1320.5469"/><text fill="#000000" font-family="sans-serif" font-size="14" lengthAdjust="spacing" textLength="85" x="1416.5" y="1340.0801">PVInstallation</text><polygon fill="#181818" points="77.5,98.6016,67.5,102.6016,77.5,106.6016,73.5,102.6016" style="stroke:#181818;stroke-width:1.0;"/><line style="stroke:#181818;stroke-width:1.0;" x1="71.5" x2="261" y1="102.6016" y2="102.6016"/><text fill="#000000" font-family="sans-serif" font-size="13" lengthAdjust="spacing" textLength="74" x="83.5" y="97.7451">active_power</text><polygon fill="#181818" points="77.5,128.9531,67.5,132.9531,77.5,136.9531,73.5,132.9531" style="stroke:#181818;stroke-width:1.0;"/><line style="stroke:#181818;stroke-width:1.0;" x1="71.5" x2="261" y1="132.9531" y2="132.9531"/><text fill="#000000" font-family="sans-serif" font-size="13" lengthAdjust="spacing" textLength="85" x="83.5" y="128.0967">reactive_power</text><polygon fill="#181818" points="77.5,159.3047,67.5,163.3047,77.5,167.3047,73.5,163.3047" style="stroke:#181818;stroke-width:1.0;"/><line style="stroke:#181818;stroke-width:1.0;" x1="71.5" x2="473.5" y1="163.3047" y2="163.3047"/><text fill="#000000" font-family="sans-serif" font-size="13" lengthAdjust="spacing" textLength="91" x="83.5" y="158.4482">solar_irradiance</text><polygon fill="#181818" points="77.5,189.6563,67.5,193.6563,77.5,197.6563,73.5,193.6563" style="stroke:#181818;stroke-width:1.0;"/><line style="stroke:#181818;stroke-width:1.0;" x1="71.5" x2="473.5" y1="193.6563" y2="193.6563"/><text fill="#000000" font-family="sans-serif" font-size="13" lengthAdjust="spacing" textLength="90" x="83.5" y="188.7998">air_temperature</text><polygon fill="#181818" points="77.5,220.0078,67.5,224.0078,77.5,228.0078,73.5,224.0078" style="stroke:#181818;stroke-width:1.0;"/><line style="stroke:#181818;stroke-width:1.0;" x1="71.5" x2="473.5" y1="224.0078" y2="224.0078"/><text fill="#000000" font-family="sans-serif" font-size="13" lengthAdjust="spacing" textLength="96" x="83.5" y="219.1514">soil_temperature</text><polygon fill="#181818" points="813,250.3594,823,254.3594,813,258.3594,817,254.3594" style="stroke:#181818;stroke-width:1.0;"/><line style="stroke:#181818;stroke-width:1.0;" x1="474.5" x2="819" y1="254.3594" y2="254.3594"/><text fill="#000000" font-family="sans-serif" font-size="13" lengthAdjust="spacing" textLength="91" x="481.5" y="249.5029">solar_irradiance</text><polygon fill="#181818" points="813,280.7109,823,284.7109,813,288.7109,817,284.7109" style="stroke:#181818;stroke-width:1.0;"/><line style="stroke:#181818;stroke-width:1.0;" x1="474.5" x2="819" y1="284.7109" y2="284.7109"/><text fill="#000000" font-family="sans-serif" font-size="13" lengthAdjust="spacing" textLength="90" x="481.5" y="279.8545">air_temperature</text><polygon fill="#181818" points="813,311.0625,823,315.0625,813,319.0625,817,315.0625" style="stroke:#181818;stroke-width:1.0;"/><line style="stroke:#181818;stroke-width:1.0;" x1="474.5" x2="819" y1="315.0625" y2="315.0625"/><text fill="#000000" font-family="sans-serif" font-size="13" lengthAdjust="spacing" textLength="96" x="481.5" y="310.2061">soil_temperature</text><line style="stroke:#181818;stroke-width:1.0;" x1="825" x2="867" y1="345.4141" y2="345.4141"/><line style="stroke:#181818;stroke-width:1.0;" x1="867" x2="867" y1="345.4141" y2="358.4141"/><line style="stroke:#181818;stroke-width:1.0;" x1="826" x2="867" y1="358.4141" y2="358.4141"/><polygon fill="#181818" points="836,354.4141,826,358.4141,836,362.4141,832,358.4141" style="stroke:#181818;stroke-width:1.0;"/><text fill="#000000" font-family="sans-serif" font-size="13" lengthAdjust="spacing" textLength="163" x="832" y="340.5576">Execute send_temperatures</text><polygon fill="#181818" points="1028.5,384.7656,1038.5,388.7656,1028.5,392.7656,1032.5,388.7656" style="stroke:#181818;stroke-width:1.0;"/><line style="stroke:#181818;stroke-width:1.0;" x1="474.5" x2="1034.5" y1="388.7656" y2="388.7656"/><text fill="#000000" font-family="sans-serif" font-size="13" lengthAdjust="spacing" textLength="91" x="481.5" y="383.9092">solar_irradiance</text><polygon fill="#181818" points="1028.5,415.1172,1038.5,419.1172,1028.5,423.1172,1032.5,419.1172" style="stroke:#181818;stroke-width:1.0;"/><line style="stroke:#181818;stroke-width:1.0;" x1="474.5" x2="1034.5" y1="419.1172" y2="419.1172"/><text fill="#000000" font-family="sans-serif" font-size="13" lengthAdjust="spacing" textLength="90" x="481.5" y="414.2607">air_temperature</text><polygon fill="#181818" points="1028.5,445.4688,1038.5,449.4688,1028.5,453.4688,1032.5,449.4688" style="stroke:#181818;stroke-width:1.0;"/><line style="stroke:#181818;stroke-width:1.0;" x1="474.5" x2="1034.5" y1="449.4688" y2="449.4688"/><text fill="#000000" font-family="sans-serif" font-size="13" lengthAdjust="spacing" textLength="96" x="481.5" y="444.6123">soil_temperature</text><line style="stroke:#181818;stroke-width:1.0;" x1="1040.5" x2="1082.5" y1="479.8203" y2="479.8203"/><line style="stroke:#181818;stroke-width:1.0;" x1="1082.5" x2="1082.5" y1="479.8203" y2="492.8203"/><line style="stroke:#181818;stroke-width:1.0;" x1="1041.5" x2="1082.5" y1="492.8203" y2="492.8203"/><polygon fill="#181818" points="1051.5,488.8203,1041.5,492.8203,1051.5,496.8203,1047.5,492.8203" style="stroke:#181818;stroke-width:1.0;"/><text fill="#000000" font-family="sans-serif" font-size="13" lengthAdjust="spacing" textLength="163" x="1047.5" y="474.9639">Execute send_temperatures</text><polygon fill="#181818" points="1447,519.1719,1457,523.1719,1447,527.1719,1451,523.1719" style="stroke:#181818;stroke-width:1.0;"/><line style="stroke:#181818;stroke-width:1.0;" x1="474.5" x2="1453" y1="523.1719" y2="523.1719"/><text fill="#000000" font-family="sans-serif" font-size="13" lengthAdjust="spacing" textLength="91" x="481.5" y="518.3154">solar_irradiance</text><line style="stroke:#181818;stroke-width:1.0;" x1="1459" x2="1501" y1="553.5234" y2="553.5234"/><line style="stroke:#181818;stroke-width:1.0;" x1="1501" x2="1501" y1="553.5234" y2="566.5234"/><line style="stroke:#181818;stroke-width:1.0;" x1="1460" x2="1501" y1="566.5234" y2="566.5234"/><polygon fill="#181818" points="1470,562.5234,1460,566.5234,1470,570.5234,1466,566.5234" style="stroke:#181818;stroke-width:1.0;"/><text fill="#000000" font-family="sans-serif" font-size="13" lengthAdjust="spacing" textLength="161" x="1466" y="548.667">Execute predict solar power</text><polygon fill="#181818" points="77.5,592.875,67.5,596.875,77.5,600.875,73.5,596.875" style="stroke:#181818;stroke-width:1.0;"/><line style="stroke:#181818;stroke-width:1.0;" x1="71.5" x2="629" y1="596.875" y2="596.875"/><text fill="#000000" font-family="sans-serif" font-size="13" lengthAdjust="spacing" textLength="111" x="83.5" y="592.0186">state_of_charge_ev</text><polygon fill="#181818" points="77.5,623.2266,67.5,627.2266,77.5,631.2266,73.5,627.2266" style="stroke:#181818;stroke-width:1.0;"/><line style="stroke:#181818;stroke-width:1.0;" x1="71.5" x2="824" y1="627.2266" y2="627.2266"/><text fill="#000000" font-family="sans-serif" font-size="13" lengthAdjust="spacing" textLength="99" x="83.5" y="622.3701">dhw_temperature</text><polygon fill="#181818" points="77.5,653.5781,67.5,657.5781,77.5,661.5781,73.5,657.5781" style="stroke:#181818;stroke-width:1.0;"/><line style="stroke:#181818;stroke-width:1.0;" x1="71.5" x2="824" y1="657.5781" y2="657.5781"/><text fill="#000000" font-family="sans-serif" font-size="13" lengthAdjust="spacing" textLength="107" x="83.5" y="652.7217">buffer_temperature</text><polygon fill="#181818" points="77.5,683.9297,67.5,687.9297,77.5,691.9297,73.5,687.9297" style="stroke:#181818;stroke-width:1.0;"/><line style="stroke:#181818;stroke-width:1.0;" x1="71.5" x2="824" y1="687.9297" y2="687.9297"/><text fill="#000000" font-family="sans-serif" font-size="13" lengthAdjust="spacing" textLength="118" x="83.5" y="683.0732">house_temperatures</text><polygon fill="#181818" points="77.5,714.2813,67.5,718.2813,77.5,722.2813,73.5,718.2813" style="stroke:#181818;stroke-width:1.0;"/><line style="stroke:#181818;stroke-width:1.0;" x1="71.5" x2="1039.5" y1="718.2813" y2="718.2813"/><text fill="#000000" font-family="sans-serif" font-size="13" lengthAdjust="spacing" textLength="107" x="83.5" y="713.4248">buffer_temperature</text><polygon fill="#181818" points="77.5,744.6328,67.5,748.6328,77.5,752.6328,73.5,748.6328" style="stroke:#181818;stroke-width:1.0;"/><line style="stroke:#181818;stroke-width:1.0;" x1="71.5" x2="1039.5" y1="748.6328" y2="748.6328"/><text fill="#000000" font-family="sans-serif" font-size="13" lengthAdjust="spacing" textLength="118" x="83.5" y="743.7764">house_temperatures</text><polygon fill="#181818" points="77.5,774.9844,67.5,778.9844,77.5,782.9844,73.5,778.9844" style="stroke:#181818;stroke-width:1.0;"/><line style="stroke:#181818;stroke-width:1.0;" x1="71.5" x2="1458" y1="778.9844" y2="778.9844"/><text fill="#000000" font-family="sans-serif" font-size="13" lengthAdjust="spacing" textLength="130" x="83.5" y="774.1279">potential_active_power</text><line style="stroke:#181818;stroke-width:1.0;" x1="66.5" x2="108.5" y1="809.3359" y2="809.3359"/><line style="stroke:#181818;stroke-width:1.0;" x1="108.5" x2="108.5" y1="809.3359" y2="822.3359"/><line style="stroke:#181818;stroke-width:1.0;" x1="67.5" x2="108.5" y1="822.3359" y2="822.3359"/><polygon fill="#181818" points="77.5,818.3359,67.5,822.3359,77.5,826.3359,73.5,822.3359" style="stroke:#181818;stroke-width:1.0;"/><text fill="#000000" font-family="sans-serif" font-size="13" lengthAdjust="spacing" textLength="160" x="73.5" y="804.4795">Execute calculate_dispatch</text><polygon fill="#181818" points="618,848.6875,628,852.6875,618,856.6875,622,852.6875" style="stroke:#181818;stroke-width:1.0;"/><line style="stroke:#181818;stroke-width:1.0;" x1="66.5" x2="624" y1="852.6875" y2="852.6875"/><text fill="#000000" font-family="sans-serif" font-size="13" lengthAdjust="spacing" textLength="68" x="73.5" y="847.8311">dispatch_ev</text><line style="stroke:#181818;stroke-width:1.0;" x1="630" x2="672" y1="883.0391" y2="883.0391"/><line style="stroke:#181818;stroke-width:1.0;" x1="672" x2="672" y1="883.0391" y2="896.0391"/><line style="stroke:#181818;stroke-width:1.0;" x1="631" x2="672" y1="896.0391" y2="896.0391"/><polygon fill="#181818" points="641,892.0391,631,896.0391,641,900.0391,637,896.0391" style="stroke:#181818;stroke-width:1.0;"/><text fill="#000000" font-family="sans-serif" font-size="13" lengthAdjust="spacing" textLength="181" x="637" y="878.1826">Execute update state of charge</text><polygon fill="#181818" points="813,922.3906,823,926.3906,813,930.3906,817,926.3906" style="stroke:#181818;stroke-width:1.0;"/><line style="stroke:#181818;stroke-width:1.0;" x1="66.5" x2="819" y1="926.3906" y2="926.3906"/><text fill="#000000" font-family="sans-serif" font-size="13" lengthAdjust="spacing" textLength="146" x="73.5" y="921.5342">heat_power_to_tank_dhw</text><polygon fill="#181818" points="813,952.7422,823,956.7422,813,960.7422,817,956.7422" style="stroke:#181818;stroke-width:1.0;"/><line style="stroke:#181818;stroke-width:1.0;" x1="66.5" x2="819" y1="956.7422" y2="956.7422"/><text fill="#000000" font-family="sans-serif" font-size="13" lengthAdjust="spacing" textLength="122" x="73.5" y="951.8857">heat_power_to_buffer</text><polygon fill="#181818" points="813,983.0938,823,987.0938,813,991.0938,817,987.0938" style="stroke:#181818;stroke-width:1.0;"/><line style="stroke:#181818;stroke-width:1.0;" x1="66.5" x2="819" y1="987.0938" y2="987.0938"/><text fill="#000000" font-family="sans-serif" font-size="13" lengthAdjust="spacing" textLength="114" x="73.5" y="982.2373">heat_power_to_dhw</text><polygon fill="#181818" points="813,1013.4453,823,1017.4453,813,1021.4453,817,1017.4453" style="stroke:#181818;stroke-width:1.0;"/><line style="stroke:#181818;stroke-width:1.0;" x1="66.5" x2="819" y1="1017.4453" y2="1017.4453"/><text fill="#000000" font-family="sans-serif" font-size="13" lengthAdjust="spacing" textLength="126" x="73.5" y="1012.5889">heat_power_to_house</text><line style="stroke:#181818;stroke-width:1.0;" x1="825" x2="867" y1="1047.7969" y2="1047.7969"/><line style="stroke:#181818;stroke-width:1.0;" x1="867" x2="867" y1="1047.7969" y2="1060.7969"/><line style="stroke:#181818;stroke-width:1.0;" x1="826" x2="867" y1="1060.7969" y2="1060.7969"/><polygon fill="#181818" points="836,1056.7969,826,1060.7969,836,1064.7969,832,1060.7969" style="stroke:#181818;stroke-width:1.0;"/><text fill="#000000" font-family="sans-serif" font-size="13" lengthAdjust="spacing" textLength="174" x="832" y="1042.9404">Execute update_temperatures</text><polygon fill="#181818" points="1028.5,1087.1484,1038.5,1091.1484,1028.5,1095.1484,1032.5,1091.1484" style="stroke:#181818;stroke-width:1.0;"/><line style="stroke:#181818;stroke-width:1.0;" x1="66.5" x2="1034.5" y1="1091.1484" y2="1091.1484"/><text fill="#000000" font-family="sans-serif" font-size="13" lengthAdjust="spacing" textLength="150" x="73.5" y="1086.292">heat_power_to_buffer_hhp</text><polygon fill="#181818" points="1028.5,1117.5,1038.5,1121.5,1028.5,1125.5,1032.5,1121.5" style="stroke:#181818;stroke-width:1.0;"/><line style="stroke:#181818;stroke-width:1.0;" x1="66.5" x2="1034.5" y1="1121.5" y2="1121.5"/><text fill="#000000" font-family="sans-serif" font-size="13" lengthAdjust="spacing" textLength="154" x="73.5" y="1116.6436">heat_power_to_house_hhp</text><line style="stroke:#181818;stroke-width:1.0;" x1="1040.5" x2="1082.5" y1="1151.8516" y2="1151.8516"/><line style="stroke:#181818;stroke-width:1.0;" x1="1082.5" x2="1082.5" y1="1151.8516" y2="1164.8516"/><line style="stroke:#181818;stroke-width:1.0;" x1="1041.5" x2="1082.5" y1="1164.8516" y2="1164.8516"/><polygon fill="#181818" points="1051.5,1160.8516,1041.5,1164.8516,1051.5,1168.8516,1047.5,1164.8516" style="stroke:#181818;stroke-width:1.0;"/><text fill="#000000" font-family="sans-serif" font-size="13" lengthAdjust="spacing" textLength="174" x="1047.5" y="1146.9951">Execute update_temperatures</text><polygon fill="#181818" points="1249,1191.2031,1259,1195.2031,1249,1199.2031,1253,1195.2031" style="stroke:#181818;stroke-width:1.0;"/><line style="stroke:#181818;stroke-width:1.0;" x1="66.5" x2="1255" y1="1195.2031" y2="1195.2031"/><text fill="#000000" font-family="sans-serif" font-size="13" lengthAdjust="spacing" textLength="145" x="73.5" y="1190.3467">aggregated_active_power</text><polygon fill="#181818" points="1249,1221.5547,1259,1225.5547,1249,1229.5547,1253,1225.5547" style="stroke:#181818;stroke-width:1.0;"/><line style="stroke:#181818;stroke-width:1.0;" x1="66.5" x2="1255" y1="1225.5547" y2="1225.5547"/><text fill="#000000" font-family="sans-serif" font-size="13" lengthAdjust="spacing" textLength="156" x="73.5" y="1220.6982">aggregated_reactive_power</text><line style="stroke:#181818;stroke-width:1.0;" x1="1261" x2="1303" y1="1255.9063" y2="1255.9063"/><line style="stroke:#181818;stroke-width:1.0;" x1="1303" x2="1303" y1="1255.9063" y2="1268.9063"/><line style="stroke:#181818;stroke-width:1.0;" x1="1262" x2="1303" y1="1268.9063" y2="1268.9063"/><polygon fill="#181818" points="1272,1264.9063,1262,1268.9063,1272,1272.9063,1268,1268.9063" style="stroke:#181818;stroke-width:1.0;"/><text fill="#000000" font-family="sans-serif" font-size="13" lengthAdjust="spacing" textLength="184" x="1268" y="1251.0498">Execute load_flow_current_step</text><!--SRC=[dLNRZjiW47ttL_03-mELsfTjf5PgfKYHqeUgGYoCRRG4q1WdpTyNs-kD6PmDhfyCFkVCvGpO2mnQQYziOBjdPot8e9rblwlFRFVpm3h0ivPGFSMdMW2gFvLVKatSnhWArwzm4bPD0hTTfgRjL8-ogAezQtJs13O8iqTNQmFTgFmBH6W1YTmQd4eUdrk1ZRRD8OXRfKUYH554vLiCl-zFVYGF2pyi4eaPGfdN5zGgvOzRzsGIVDOVmEPwk7O1JgFKZoEp42uENsbdRa2YiJz-jrtibxbrOq-waK8YFtVxwKioFP-OY2zduDvT04lm22bZrVcCrJaZa6j4eRImCTz2dj38Ooiye0WzGdauRSfuxmPloN51Aaum2KIoU_-MudP_GVO1eiTMBV7T1r7IgTrK5AMMbvO7fGMcY3NEVnHBJiHAiGInnfdZUWIbPPWqsDjmPtTGFcdn0t1NSpaWWSCvSJC5g_Por_SK-TBNDM0Xk7Lz1sdFyeO_rdz0MOcIjpUbU1UYQLeOdjuP2r36cVsGmiZU3CrLklCYo3RZPUx43hzX1n_MtLiXpI5xhyGmWOEbpDLiifI6NSni6r-dcdXmF0ZxogF5nOJ9X6Bu5kdHh4VtobGlEMma03scQnNmjlKRYTCm3RmDLqD1licFDbvXJOFGH9BwU0BlihA_tGAO4-T4ZHEAryPTkEmHun7W4U3_0G00]--></g></svg>