<svg xmlns="http://www.w3.org/2000/svg" xmlns:xlink="http://www.w3.org/1999/xlink" contentStyleType="text/css" height="1486px" preserveAspectRatio="none" style="width:1647px;height:1486px;background:#FFFFFF;" version="1.1" viewBox="0 0 1647 1486" width="1647px" zoomAndPan="magnify"><defs/><g><line style="stroke:#181818;stroke-width:0.5;stroke-dasharray:5.0,5.0;" x1="73" x2="73" y1="70.25" y2="1416.9609"/><line style="stroke:#181818;stroke-width:0.5;stroke-dasharray:5.0,5.0;" x1="275" x2="275" y1="70.25" y2="1416.9609"/><line style="stroke:#181818;stroke-width:0.5;stroke-dasharray:5.0,5.0;" x1="487" x2="487" y1="70.25" y2="1416.9609"/><line style="stroke:#181818;stroke-width:0.5;stroke-dasharray:5.0,5.0;" x1="643" x2="643" y1="70.25" y2="1416.9609"/><line style="stroke:#181818;stroke-width:0.5;stroke-dasharray:5.0,5.0;" x1="838" x2="838" y1="70.25" y2="1416.9609"/><line style="stroke:#181818;stroke-width:0.5;stroke-dasharray:5.0,5.0;" x1="1053" x2="1053" y1="70.25" y2="1416.9609"/><line style="stroke:#181818;stroke-width:0.5;stroke-dasharray:5.0,5.0;" x1="1274" x2="1274" y1="70.25" y2="1416.9609"/><line style="stroke:#181818;stroke-width:0.5;stroke-dasharray:5.0,5.0;" x1="1471.5" x2="1471.5" y1="70.25" y2="1416.9609"/><rect fill="#E2E2F0" height="64.25" rx="2.5" ry="2.5" style="stroke:#181818;stroke-width:0.5;" width="136" x="5" y="5"/><text fill="#000000" font-family="sans-serif" font-size="18" font-weight="bold" lengthAdjust="spacing" textLength="122" x="12" y="30.6855">HEMS service</text><line style="stroke:#181818;stroke-width:1.0;" x1="5" x2="141" y1="39.6406" y2="39.6406"/><text fill="#000000" font-family="sans-serif" font-size="14" lengthAdjust="spacing" textLength="81" x="32.5" y="59.1738">EConnection</text><rect fill="#E2E2F0" height="64.25" rx="2.5" ry="2.5" style="stroke:#181818;stroke-width:0.5;" width="136" x="5" y="1415.9609"/><text fill="#000000" font-family="sans-serif" font-size="18" font-weight="bold" lengthAdjust="spacing" textLength="122" x="12" y="1441.6465">HEMS service</text><line style="stroke:#181818;stroke-width:1.0;" x1="5" x2="141" y1="1450.6016" y2="1450.6016"/><text fill="#000000" font-family="sans-serif" font-size="14" lengthAdjust="spacing" textLength="81" x="32.5" y="1470.1348">EConnection</text><rect fill="#E2E2F0" height="64.25" rx="2.5" ry="2.5" style="stroke:#181818;stroke-width:0.5;" width="248" x="151" y="5"/><text fill="#000000" font-family="sans-serif" font-size="18" font-weight="bold" lengthAdjust="spacing" textLength="234" x="158" y="30.6855">Electricity demand service</text><line style="stroke:#181818;stroke-width:1.0;" x1="151" x2="399" y1="39.6406" y2="39.6406"/><text fill="#000000" font-family="sans-serif" font-size="14" lengthAdjust="spacing" textLength="113" x="218.5" y="59.1738">ElectricityDemand</text><rect fill="#E2E2F0" height="64.25" rx="2.5" ry="2.5" style="stroke:#181818;stroke-width:0.5;" width="248" x="151" y="1415.9609"/><text fill="#000000" font-family="sans-serif" font-size="18" font-weight="bold" lengthAdjust="spacing" textLength="234" x="158" y="1441.6465">Electricity demand service</text><line style="stroke:#181818;stroke-width:1.0;" x1="151" x2="399" y1="1450.6016" y2="1450.6016"/><text fill="#000000" font-family="sans-serif" font-size="14" lengthAdjust="spacing" textLength="113" x="218.5" y="1470.1348">ElectricityDemand</text><rect fill="#E2E2F0" height="64.25" rx="2.5" ry="2.5" style="stroke:#181818;stroke-width:0.5;" width="157" x="409" y="5"/><text fill="#000000" font-family="sans-serif" font-size="18" font-weight="bold" lengthAdjust="spacing" textLength="143" x="416" y="30.6855">Weather service</text><line style="stroke:#181818;stroke-width:1.0;" x1="409" x2="566" y1="39.6406" y2="39.6406"/><text fill="#000000" font-family="sans-serif" font-size="14" lengthAdjust="spacing" textLength="137" x="419" y="59.1738">EnvironmentalProfiles</text><rect fill="#E2E2F0" height="64.25" rx="2.5" ry="2.5" style="stroke:#181818;stroke-width:0.5;" width="157" x="409" y="1415.9609"/><text fill="#000000" font-family="sans-serif" font-size="18" font-weight="bold" lengthAdjust="spacing" textLength="143" x="416" y="1441.6465">Weather service</text><line style="stroke:#181818;stroke-width:1.0;" x1="409" x2="566" y1="1450.6016" y2="1450.6016"/><text fill="#000000" font-family="sans-serif" font-size="14" lengthAdjust="spacing" textLength="137" x="419" y="1470.1348">EnvironmentalProfiles</text><rect fill="#E2E2F0" height="64.25" rx="2.5" ry="2.5" style="stroke:#181818;stroke-width:0.5;" width="134" x="576" y="5"/><text fill="#000000" font-family="sans-serif" font-size="18" font-weight="bold" lengthAdjust="spacing" textLength="95" x="595.5" y="30.6855">EV service</text><line style="stroke:#181818;stroke-width:1.0;" x1="576" x2="710" y1="39.6406" y2="39.6406"/><text fill="#000000" font-family="sans-serif" font-size="14" lengthAdjust="spacing" textLength="120" x="583" y="59.1738">EVChargingStation</text><rect fill="#E2E2F0" height="64.25" rx="2.5" ry="2.5" style="stroke:#181818;stroke-width:0.5;" width="134" x="576" y="1415.9609"/><text fill="#000000" font-family="sans-serif" font-size="18" font-weight="bold" lengthAdjust="spacing" textLength="95" x="595.5" y="1441.6465">EV service</text><line style="stroke:#181818;stroke-width:1.0;" x1="576" x2="710" y1="1450.6016" y2="1450.6016"/><text fill="#000000" font-family="sans-serif" font-size="14" lengthAdjust="spacing" textLength="120" x="583" y="1470.1348">EVChargingStation</text><rect fill="#E2E2F0" height="64.25" rx="2.5" ry="2.5" style="stroke:#181818;stroke-width:0.5;" width="174" x="751" y="5"/><text fill="#000000" font-family="sans-serif" font-size="18" font-weight="bold" lengthAdjust="spacing" textLength="160" x="758" y="30.6855">Heatpump service</text><line style="stroke:#181818;stroke-width:1.0;" x1="751" x2="925" y1="39.6406" y2="39.6406"/><text fill="#000000" font-family="sans-serif" font-size="14" lengthAdjust="spacing" textLength="65" x="805.5" y="59.1738">HeatPump</text><rect fill="#E2E2F0" height="64.25" rx="2.5" ry="2.5" style="stroke:#181818;stroke-width:0.5;" width="174" x="751" y="1415.9609"/><text fill="#000000" font-family="sans-serif" font-size="18" font-weight="bold" lengthAdjust="spacing" textLength="160" x="758" y="1441.6465">Heatpump service</text><line style="stroke:#181818;stroke-width:1.0;" x1="751" x2="925" y1="1450.6016" y2="1450.6016"/><text fill="#000000" font-family="sans-serif" font-size="14" lengthAdjust="spacing" textLength="65" x="805.5" y="1470.1348">HeatPump</text><rect fill="#E2E2F0" height="64.25" rx="2.5" ry="2.5" style="stroke:#181818;stroke-width:0.5;" width="237" x="935" y="5"/><text fill="#000000" font-family="sans-serif" font-size="18" font-weight="bold" lengthAdjust="spacing" textLength="223" x="942" y="30.6855">Hybrid Heatpump service</text><line style="stroke:#181818;stroke-width:1.0;" x1="935" x2="1172" y1="39.6406" y2="39.6406"/><text fill="#000000" font-family="sans-serif" font-size="14" lengthAdjust="spacing" textLength="105" x="1001" y="59.1738">HybridHeatPump</text><rect fill="#E2E2F0" height="64.25" rx="2.5" ry="2.5" style="stroke:#181818;stroke-width:0.5;" width="237" x="935" y="1415.9609"/><text fill="#000000" font-family="sans-serif" font-size="18" font-weight="bold" lengthAdjust="spacing" textLength="223" x="942" y="1441.6465">Hybrid Heatpump service</text><line style="stroke:#181818;stroke-width:1.0;" x1="935" x2="1172" y1="1450.6016" y2="1450.6016"/><text fill="#000000" font-family="sans-serif" font-size="14" lengthAdjust="spacing" textLength="105" x="1001" y="1470.1348">HybridHeatPump</text><rect fill="#E2E2F0" height="64.25" rx="2.5" ry="2.5" style="stroke:#181818;stroke-width:0.5;" width="184" x="1182" y="5"/><text fill="#000000" font-family="sans-serif" font-size="18" font-weight="bold" lengthAdjust="spacing" textLength="170" x="1189" y="30.6855">LV network service</text><line style="stroke:#181818;stroke-width:1.0;" x1="1182" x2="1366" y1="39.6406" y2="39.6406"/><text fill="#000000" font-family="sans-serif" font-size="14" lengthAdjust="spacing" textLength="91" x="1228.5" y="59.1738">EnergySystem</text><rect fill="#E2E2F0" height="64.25" rx="2.5" ry="2.5" style="stroke:#181818;stroke-width:0.5;" width="184" x="1182" y="1415.9609"/><text fill="#000000" font-family="sans-serif" font-size="18" font-weight="bold" lengthAdjust="spacing" textLength="170" x="1189" y="1441.6465">LV network service</text><line style="stroke:#181818;stroke-width:1.0;" x1="1182" x2="1366" y1="1450.6016" y2="1450.6016"/><text fill="#000000" font-family="sans-serif" font-size="14" lengthAdjust="spacing" textLength="91" x="1228.5" y="1470.1348">EnergySystem</text><rect fill="#E2E2F0" height="64.25" rx="2.5" ry="2.5" style="stroke:#181818;stroke-width:0.5;" width="109" x="1417.5" y="5"/><text fill="#000000" font-family="sans-serif" font-size="18" font-weight="bold" lengthAdjust="spacing" textLength="95" x="1424.5" y="30.6855">PV service</text><line style="stroke:#181818;stroke-width:1.0;" x1="1417.5" x2="1526.5" y1="39.6406" y2="39.6406"/><text fill="#000000" font-family="sans-serif" font-size="14" lengthAdjust="spacing" textLength="85" x="1429.5" y="59.1738">PVInstallation</text><rect fill="#E2E2F0" height="64.25" rx="2.5" ry="2.5" style="stroke:#181818;stroke-width:0.5;" width="109" x="1417.5" y="1415.9609"/><text fill="#000000" font-family="sans-serif" font-size="18" font-weight="bold" lengthAdjust="spacing" textLength="95" x="1424.5" y="1441.6465">PV service</text><line style="stroke:#181818;stroke-width:1.0;" x1="1417.5" x2="1526.5" y1="1450.6016" y2="1450.6016"/><text fill="#000000" font-family="sans-serif" font-size="14" lengthAdjust="spacing" textLength="85" x="1429.5" y="1470.1348">PVInstallation</text><line style="stroke:#181818;stroke-width:1.0;" x1="275" x2="317" y1="102.6016" y2="102.6016"/><line style="stroke:#181818;stroke-width:1.0;" x1="317" x2="317" y1="102.6016" y2="115.6016"/><line style="stroke:#181818;stroke-width:1.0;" x1="276" x2="317" y1="115.6016" y2="115.6016"/><polygon fill="#181818" points="286,111.6016,276,115.6016,286,119.6016,282,115.6016" style="stroke:#181818;stroke-width:1.0;"/><text fill="#000000" font-family="sans-serif" font-size="13" lengthAdjust="spacing" textLength="89" x="282" y="97.7451">predict demand</text><line style="stroke:#181818;stroke-width:1.0;" x1="487.5" x2="529.5" y1="145.9531" y2="145.9531"/><line style="stroke:#181818;stroke-width:1.0;" x1="529.5" x2="529.5" y1="145.9531" y2="158.9531"/><line style="stroke:#181818;stroke-width:1.0;" x1="488.5" x2="529.5" y1="158.9531" y2="158.9531"/><polygon fill="#181818" points="498.5,154.9531,488.5,158.9531,498.5,162.9531,494.5,158.9531" style="stroke:#181818;stroke-width:1.0;"/><text fill="#000000" font-family="sans-serif" font-size="13" lengthAdjust="spacing" textLength="109" x="494.5" y="141.0967">Weather prediction</text><line style="stroke:#181818;stroke-width:1.0;" x1="643" x2="685" y1="189.3047" y2="189.3047"/><line style="stroke:#181818;stroke-width:1.0;" x1="685" x2="685" y1="189.3047" y2="202.3047"/><line style="stroke:#181818;stroke-width:1.0;" x1="644" x2="685" y1="202.3047" y2="202.3047"/><polygon fill="#181818" points="654,198.3047,644,202.3047,654,206.3047,650,202.3047" style="stroke:#181818;stroke-width:1.0;"/><text fill="#000000" font-family="sans-serif" font-size="13" lengthAdjust="spacing" textLength="118" x="650" y="184.4482">send state of charge</text><polygon fill="#181818" points="84,228.6563,74,232.6563,84,236.6563,80,232.6563" style="stroke:#181818;stroke-width:1.0;"/><line style="stroke:#181818;stroke-width:1.0;" x1="78" x2="274" y1="232.6563" y2="232.6563"/><text fill="#000000" font-family="sans-serif" font-size="13" lengthAdjust="spacing" textLength="74" x="90" y="227.7998">active_power</text><polygon fill="#181818" points="84,259.0078,74,263.0078,84,267.0078,80,263.0078" style="stroke:#181818;stroke-width:1.0;"/><line style="stroke:#181818;stroke-width:1.0;" x1="78" x2="274" y1="263.0078" y2="263.0078"/><text fill="#000000" font-family="sans-serif" font-size="13" lengthAdjust="spacing" textLength="85" x="90" y="258.1514">reactive_power</text><polygon fill="#181818" points="84,289.3594,74,293.3594,84,297.3594,80,293.3594" style="stroke:#181818;stroke-width:1.0;"/><line style="stroke:#181818;stroke-width:1.0;" x1="78" x2="486.5" y1="293.3594" y2="293.3594"/><text fill="#000000" font-family="sans-serif" font-size="13" lengthAdjust="spacing" textLength="91" x="90" y="288.5029">solar_irradiance</text><polygon fill="#181818" points="84,319.7109,74,323.7109,84,327.7109,80,323.7109" style="stroke:#181818;stroke-width:1.0;"/><line style="stroke:#181818;stroke-width:1.0;" x1="78" x2="486.5" y1="323.7109" y2="323.7109"/><text fill="#000000" font-family="sans-serif" font-size="13" lengthAdjust="spacing" textLength="90" x="90" y="318.8545">air_temperature</text><polygon fill="#181818" points="84,350.0625,74,354.0625,84,358.0625,80,354.0625" style="stroke:#181818;stroke-width:1.0;"/><line style="stroke:#181818;stroke-width:1.0;" x1="78" x2="486.5" y1="354.0625" y2="354.0625"/><text fill="#000000" font-family="sans-serif" font-size="13" lengthAdjust="spacing" textLength="96" x="90" y="349.2061">soil_temperature</text><polygon fill="#181818" points="826,380.4141,836,384.4141,826,388.4141,830,384.4141" style="stroke:#181818;stroke-width:1.0;"/><line style="stroke:#181818;stroke-width:1.0;" x1="487.5" x2="832" y1="384.4141" y2="384.4141"/><text fill="#000000" font-family="sans-serif" font-size="13" lengthAdjust="spacing" textLength="91" x="494.5" y="379.5576">solar_irradiance</text><polygon fill="#181818" points="826,410.7656,836,414.7656,826,418.7656,830,414.7656" style="stroke:#181818;stroke-width:1.0;"/><line style="stroke:#181818;stroke-width:1.0;" x1="487.5" x2="832" y1="414.7656" y2="414.7656"/><text fill="#000000" font-family="sans-serif" font-size="13" lengthAdjust="spacing" textLength="90" x="494.5" y="409.9092">air_temperature</text><polygon fill="#181818" points="826,441.1172,836,445.1172,826,449.1172,830,445.1172" style="stroke:#181818;stroke-width:1.0;"/><line style="stroke:#181818;stroke-width:1.0;" x1="487.5" x2="832" y1="445.1172" y2="445.1172"/><text fill="#000000" font-family="sans-serif" font-size="13" lengthAdjust="spacing" textLength="96" x="494.5" y="440.2607">soil_temperature</text><line style="stroke:#181818;stroke-width:1.0;" x1="838" x2="880" y1="475.4688" y2="475.4688"/><line style="stroke:#181818;stroke-width:1.0;" x1="880" x2="880" y1="475.4688" y2="488.4688"/><line style="stroke:#181818;stroke-width:1.0;" x1="839" x2="880" y1="488.4688" y2="488.4688"/><polygon fill="#181818" points="849,484.4688,839,488.4688,849,492.4688,845,488.4688" style="stroke:#181818;stroke-width:1.0;"/><text fill="#000000" font-family="sans-serif" font-size="13" lengthAdjust="spacing" textLength="163" x="845" y="470.6123">Execute send_temperatures</text><polygon fill="#181818" points="1041.5,514.8203,1051.5,518.8203,1041.5,522.8203,1045.5,518.8203" style="stroke:#181818;stroke-width:1.0;"/><line style="stroke:#181818;stroke-width:1.0;" x1="487.5" x2="1047.5" y1="518.8203" y2="518.8203"/><text fill="#000000" font-family="sans-serif" font-size="13" lengthAdjust="spacing" textLength="91" x="494.5" y="513.9639">solar_irradiance</text><polygon fill="#181818" points="1041.5,545.1719,1051.5,549.1719,1041.5,553.1719,1045.5,549.1719" style="stroke:#181818;stroke-width:1.0;"/><line style="stroke:#181818;stroke-width:1.0;" x1="487.5" x2="1047.5" y1="549.1719" y2="549.1719"/><text fill="#000000" font-family="sans-serif" font-size="13" lengthAdjust="spacing" textLength="90" x="494.5" y="544.3154">air_temperature</text><polygon fill="#181818" points="1041.5,575.5234,1051.5,579.5234,1041.5,583.5234,1045.5,579.5234" style="stroke:#181818;stroke-width:1.0;"/><line style="stroke:#181818;stroke-width:1.0;" x1="487.5" x2="1047.5" y1="579.5234" y2="579.5234"/><text fill="#000000" font-family="sans-serif" font-size="13" lengthAdjust="spacing" textLength="96" x="494.5" y="574.667">soil_temperature</text><line style="stroke:#181818;stroke-width:1.0;" x1="1053.5" x2="1095.5" y1="609.875" y2="609.875"/><line style="stroke:#181818;stroke-width:1.0;" x1="1095.5" x2="1095.5" y1="609.875" y2="622.875"/><line style="stroke:#181818;stroke-width:1.0;" x1="1054.5" x2="1095.5" y1="622.875" y2="622.875"/><polygon fill="#181818" points="1064.5,618.875,1054.5,622.875,1064.5,626.875,1060.5,622.875" style="stroke:#181818;stroke-width:1.0;"/><text fill="#000000" font-family="sans-serif" font-size="13" lengthAdjust="spacing" textLength="163" x="1060.5" y="605.0186">Execute send_temperatures</text><polygon fill="#181818" points="1460,649.2266,1470,653.2266,1460,657.2266,1464,653.2266" style="stroke:#181818;stroke-width:1.0;"/><line style="stroke:#181818;stroke-width:1.0;" x1="487.5" x2="1466" y1="653.2266" y2="653.2266"/><text fill="#000000" font-family="sans-serif" font-size="13" lengthAdjust="spacing" textLength="91" x="494.5" y="648.3701">solar_irradiance</text><line style="stroke:#181818;stroke-width:1.0;" x1="1472" x2="1514" y1="683.5781" y2="683.5781"/><line style="stroke:#181818;stroke-width:1.0;" x1="1514" x2="1514" y1="683.5781" y2="696.5781"/><line style="stroke:#181818;stroke-width:1.0;" x1="1473" x2="1514" y1="696.5781" y2="696.5781"/><polygon fill="#181818" points="1483,692.5781,1473,696.5781,1483,700.5781,1479,696.5781" style="stroke:#181818;stroke-width:1.0;"/><text fill="#000000" font-family="sans-serif" font-size="13" lengthAdjust="spacing" textLength="161" x="1479" y="678.7217">Execute predict solar power</text><polygon fill="#181818" points="84,722.9297,74,726.9297,84,730.9297,80,726.9297" style="stroke:#181818;stroke-width:1.0;"/><line style="stroke:#181818;stroke-width:1.0;" x1="78" x2="642" y1="726.9297" y2="726.9297"/><text fill="#000000" font-family="sans-serif" font-size="13" lengthAdjust="spacing" textLength="111" x="90" y="722.0732">state_of_charge_ev</text><polygon fill="#181818" points="84,753.2813,74,757.2813,84,761.2813,80,757.2813" style="stroke:#181818;stroke-width:1.0;"/><line style="stroke:#181818;stroke-width:1.0;" x1="78" x2="837" y1="757.2813" y2="757.2813"/><text fill="#000000" font-family="sans-serif" font-size="13" lengthAdjust="spacing" textLength="99" x="90" y="752.4248">dhw_temperature</text><polygon fill="#181818" points="84,783.6328,74,787.6328,84,791.6328,80,787.6328" style="stroke:#181818;stroke-width:1.0;"/><line style="stroke:#181818;stroke-width:1.0;" x1="78" x2="837" y1="787.6328" y2="787.6328"/><text fill="#000000" font-family="sans-serif" font-size="13" lengthAdjust="spacing" textLength="107" x="90" y="782.7764">buffer_temperature</text><polygon fill="#181818" points="84,813.9844,74,817.9844,84,821.9844,80,817.9844" style="stroke:#181818;stroke-width:1.0;"/><line style="stroke:#181818;stroke-width:1.0;" x1="78" x2="837" y1="817.9844" y2="817.9844"/><text fill="#000000" font-family="sans-serif" font-size="13" lengthAdjust="spacing" textLength="118" x="90" y="813.1279">house_temperatures</text><polygon fill="#181818" points="84,844.3359,74,848.3359,84,852.3359,80,848.3359" style="stroke:#181818;stroke-width:1.0;"/><line style="stroke:#181818;stroke-width:1.0;" x1="78" x2="1052.5" y1="848.3359" y2="848.3359"/><text fill="#000000" font-family="sans-serif" font-size="13" lengthAdjust="spacing" textLength="107" x="90" y="843.4795">buffer_temperature</text><polygon fill="#181818" points="84,874.6875,74,878.6875,84,882.6875,80,878.6875" style="stroke:#181818;stroke-width:1.0;"/><line style="stroke:#181818;stroke-width:1.0;" x1="78" x2="1052.5" y1="878.6875" y2="878.6875"/><text fill="#000000" font-family="sans-serif" font-size="13" lengthAdjust="spacing" textLength="118" x="90" y="873.8311">house_temperatures</text><polygon fill="#181818" points="84,905.0391,74,909.0391,84,913.0391,80,909.0391" style="stroke:#181818;stroke-width:1.0;"/><line style="stroke:#181818;stroke-width:1.0;" x1="78" x2="1471" y1="909.0391" y2="909.0391"/><text fill="#000000" font-family="sans-serif" font-size="13" lengthAdjust="spacing" textLength="130" x="90" y="904.1826">potential_active_power</text><line style="stroke:#181818;stroke-width:1.0;" x1="73" x2="115" y1="939.3906" y2="939.3906"/><line style="stroke:#181818;stroke-width:1.0;" x1="115" x2="115" y1="939.3906" y2="952.3906"/><line style="stroke:#181818;stroke-width:1.0;" x1="74" x2="115" y1="952.3906" y2="952.3906"/><polygon fill="#181818" points="84,948.3906,74,952.3906,84,956.3906,80,952.3906" style="stroke:#181818;stroke-width:1.0;"/><text fill="#000000" font-family="sans-serif" font-size="13" lengthAdjust="spacing" textLength="160" x="80" y="934.5342">Execute calculate_dispatch</text><polygon fill="#181818" points="631,978.7422,641,982.7422,631,986.7422,635,982.7422" style="stroke:#181818;stroke-width:1.0;"/><line style="stroke:#181818;stroke-width:1.0;" x1="73" x2="637" y1="982.7422" y2="982.7422"/><text fill="#000000" font-family="sans-serif" font-size="13" lengthAdjust="spacing" textLength="68" x="80" y="977.8857">dispatch_ev</text><line style="stroke:#181818;stroke-width:1.0;" x1="643" x2="685" y1="1013.0938" y2="1013.0938"/><line style="stroke:#181818;stroke-width:1.0;" x1="685" x2="685" y1="1013.0938" y2="1026.0938"/><line style="stroke:#181818;stroke-width:1.0;" x1="644" x2="685" y1="1026.0938" y2="1026.0938"/><polygon fill="#181818" points="654,1022.0938,644,1026.0938,654,1030.0938,650,1026.0938" style="stroke:#181818;stroke-width:1.0;"/><text fill="#000000" font-family="sans-serif" font-size="13" lengthAdjust="spacing" textLength="181" x="650" y="1008.2373">Execute update state of charge</text><polygon fill="#181818" points="826,1052.4453,836,1056.4453,826,1060.4453,830,1056.4453" style="stroke:#181818;stroke-width:1.0;"/><line style="stroke:#181818;stroke-width:1.0;" x1="73" x2="832" y1="1056.4453" y2="1056.4453"/><text fill="#000000" font-family="sans-serif" font-size="13" lengthAdjust="spacing" textLength="146" x="80" y="1051.5889">heat_power_to_tank_dhw</text><polygon fill="#181818" points="826,1082.7969,836,1086.7969,826,1090.7969,830,1086.7969" style="stroke:#181818;stroke-width:1.0;"/><line style="stroke:#181818;stroke-width:1.0;" x1="73" x2="832" y1="1086.7969" y2="1086.7969"/><text fill="#000000" font-family="sans-serif" font-size="13" lengthAdjust="spacing" textLength="122" x="80" y="1081.9404">heat_power_to_buffer</text><polygon fill="#181818" points="826,1113.1484,836,1117.1484,826,1121.1484,830,1117.1484" style="stroke:#181818;stroke-width:1.0;"/><line style="stroke:#181818;stroke-width:1.0;" x1="73" x2="832" y1="1117.1484" y2="1117.1484"/><text fill="#000000" font-family="sans-serif" font-size="13" lengthAdjust="spacing" textLength="114" x="80" y="1112.292">heat_power_to_dhw</text><polygon fill="#181818" points="826,1143.5,836,1147.5,826,1151.5,830,1147.5" style="stroke:#181818;stroke-width:1.0;"/><line style="stroke:#181818;stroke-width:1.0;" x1="73" x2="832" y1="1147.5" y2="1147.5"/><text fill="#000000" font-family="sans-serif" font-size="13" lengthAdjust="spacing" textLength="126" x="80" y="1142.6436">heat_power_to_house</text><line style="stroke:#181818;stroke-width:1.0;" x1="838" x2="880" y1="1177.8516" y2="1177.8516"/><line style="stroke:#181818;stroke-width:1.0;" x1="880" x2="880" y1="1177.8516" y2="1190.8516"/><line style="stroke:#181818;stroke-width:1.0;" x1="839" x2="880" y1="1190.8516" y2="1190.8516"/><polygon fill="#181818" points="849,1186.8516,839,1190.8516,849,1194.8516,845,1190.8516" style="stroke:#181818;stroke-width:1.0;"/><text fill="#000000" font-family="sans-serif" font-size="13" lengthAdjust="spacing" textLength="174" x="845" y="1172.9951">Execute update_temperatures</text><polygon fill="#181818" points="1041.5,1217.2031,1051.5,1221.2031,1041.5,1225.2031,1045.5,1221.2031" style="stroke:#181818;stroke-width:1.0;"/><line style="stroke:#181818;stroke-width:1.0;" x1="73" x2="1047.5" y1="1221.2031" y2="1221.2031"/><text fill="#000000" font-family="sans-serif" font-size="13" lengthAdjust="spacing" textLength="150" x="80" y="1216.3467">heat_power_to_buffer_hhp</text><polygon fill="#181818" points="1041.5,1247.5547,1051.5,1251.5547,1041.5,1255.5547,1045.5,1251.5547" style="stroke:#181818;stroke-width:1.0;"/><line style="stroke:#181818;stroke-width:1.0;" x1="73" x2="1047.5" y1="1251.5547" y2="1251.5547"/><text fill="#000000" font-family="sans-serif" font-size="13" lengthAdjust="spacing" textLength="154" x="80" y="1246.6982">heat_power_to_house_hhp</text><line style="stroke:#181818;stroke-width:1.0;" x1="1053.5" x2="1095.5" y1="1281.9063" y2="1281.9063"/><line style="stroke:#181818;stroke-width:1.0;" x1="1095.5" x2="1095.5" y1="1281.9063" y2="1294.9063"/><line style="stroke:#181818;stroke-width:1.0;" x1="1054.5" x2="1095.5" y1="1294.9063" y2="1294.9063"/><polygon fill="#181818" points="1064.5,1290.9063,1054.5,1294.9063,1064.5,1298.9063,1060.5,1294.9063" style="stroke:#181818;stroke-width:1.0;"/><text fill="#000000" font-family="sans-serif" font-size="13" lengthAdjust="spacing" textLength="174" x="1060.5" y="1277.0498">Execute update_temperatures</text><polygon fill="#181818" points="1262,1321.2578,1272,1325.2578,1262,1329.2578,1266,1325.2578" style="stroke:#181818;stroke-width:1.0;"/><line style="stroke:#181818;stroke-width:1.0;" x1="73" x2="1268" y1="1325.2578" y2="1325.2578"/><text fill="#000000" font-family="sans-serif" font-size="13" lengthAdjust="spacing" textLength="145" x="80" y="1320.4014">aggregated_active_power</text><polygon fill="#181818" points="1262,1351.6094,1272,1355.6094,1262,1359.6094,1266,1355.6094" style="stroke:#181818;stroke-width:1.0;"/><line style="stroke:#181818;stroke-width:1.0;" x1="73" x2="1268" y1="1355.6094" y2="1355.6094"/><text fill="#000000" font-family="sans-serif" font-size="13" lengthAdjust="spacing" textLength="156" x="80" y="1350.7529">aggregated_reactive_power</text><line style="stroke:#181818;stroke-width:1.0;" x1="1274" x2="1316" y1="1385.9609" y2="1385.9609"/><line style="stroke:#181818;stroke-width:1.0;" x1="1316" x2="1316" y1="1385.9609" y2="1398.9609"/><line style="stroke:#181818;stroke-width:1.0;" x1="1275" x2="1316" y1="1398.9609" y2="1398.9609"/><polygon fill="#181818" points="1285,1394.9609,1275,1398.9609,1285,1402.9609,1281,1398.9609" style="stroke:#181818;stroke-width:1.0;"/><text fill="#000000" font-family="sans-serif" font-size="13" lengthAdjust="spacing" textLength="184" x="1281" y="1381.1045">Execute load_flow_current_step</text><!--SRC=[dLRBRjim4BpxA_W3-G43xIKra08jOC20UoWAWg5M4X6Q95QK7VzzICbon8TYgZvPrCmiTsTtRSFG2YuCKvRidhLImAtGYlpTV2Clkzy7qW6U1OVDa_jiPeZDlusPSwKxHlTahp_Wn5GrACnEIJKUXtenArPLPu5QdK1P9lUeQo6X6vJ_0BCjO2INWyUIn-UMOIDKSx3idkhk62d5g4ZbnONVzoSpriaz6FyGI4oGc7bzHL65_E5eIIR09_K1RAw7QsVXD4ZzEX85zgBnBQxC9p3Is1z_gixLItvMOnzL8uGuVkhsq_TC2so9GQW4jpVpymODtEoBxTtccuwFdXhe-SdXrgNWsyqz0j4ruVuzBDnyrlXRmjoNCr2ZBu0bU8IGiPXZmEgqP4W58gi4KwxIXJmca3eJ3I2pFK9vE27BUFVMN7F76QduWa6Ww7RtTo5kzmwyTtvwQ-VuxeieuRojIYgcbgUM1eqJ314vpdya6yro9ja8aUDCSQVP7JJ8hRcpmnTscfyugciwJXo5S-1c2AxQowBl8VArhsl0Gd2h-mx2cgK5Vwp_W9A9afOtf1XjdMc2IHhkZ1aeuKn-S2PvBtrnAz4PPdcRy39RSC9w7ufNvnIoDvLVdyaI3SFEUhPrNyUSgDNKClL6dSN5XD64OlWQwS6iHtjbp3SQjYX0FAQv36ZRcfN4iPayRyLgABXly1V1hR2cGMWSgVgw0nTPoQ_T39WIfujApIfQItsXl4Tq8q0Tm7m0]--></g></svg>